# Blender v2.78 (sub 0) OBJ File: ''
# www.blender.org
mtllib pipe.mtl
o Elbow_Joint
v -2.762377 0.000000 -2.039114
v -2.762377 -3.000000 -2.039114
v -2.957467 -3.000000 -2.019899
v -2.957467 -0.080809 -2.019899
v -2.567287 0.080809 -2.019899
v -2.567287 -3.000000 -2.019899
v -2.379694 0.158513 -1.962994
v -2.379694 -3.000000 -1.962993
v -2.206807 0.230125 -1.870584
v -2.206807 -3.000000 -1.870583
v -2.055270 0.292893 -1.746221
v -2.055270 -3.000000 -1.746221
v -1.930907 0.344406 -1.594684
v -1.930907 -3.000000 -1.594684
v -1.838497 0.382683 -1.421798
v -1.838497 -3.000000 -1.421797
v -1.781592 0.406255 -1.234204
v -1.781592 -3.000000 -1.234204
v -1.762377 0.414214 -1.039114
v -1.762377 -3.000000 -1.039114
v -1.781592 0.406255 -0.844024
v -1.781592 -3.000000 -0.844023
v -1.838497 0.382683 -0.656431
v -1.838497 -3.000000 -0.656430
v -1.930907 0.344406 -0.483544
v -1.930907 -3.000000 -0.483544
v -2.055270 0.292893 -0.332007
v -2.055270 -3.000000 -0.332007
v -2.206807 0.230125 -0.207644
v -2.206807 -3.000000 -0.207644
v -2.379694 0.158513 -0.115234
v -2.379694 -3.000000 -0.115234
v -2.567287 0.080809 -0.058329
v -2.567287 -3.000000 -0.058329
v -2.762377 0.000000 -0.039114
v -2.762377 -3.000000 -0.039114
v -2.957467 -0.080809 -0.058329
v -2.957467 -3.000000 -0.058329
v -3.145060 -0.158513 -0.115234
v -3.145060 -3.000000 -0.115234
v -3.317947 -0.230125 -0.207644
v -3.317947 -3.000000 -0.207644
v -3.469484 -0.292893 -0.332007
v -3.469484 -3.000000 -0.332007
v -3.593847 -0.344406 -0.483544
v -3.593847 -3.000000 -0.483544
v -3.686257 -0.382683 -0.656431
v -3.686257 -3.000000 -0.656430
v -3.743162 -0.406255 -0.844024
v -3.743162 -3.000000 -0.844023
v -3.762377 -0.414214 -1.039114
v -3.762377 -3.000000 -1.039114
v -3.743162 -0.406255 -1.234204
v -3.743162 -3.000000 -1.234204
v -3.686257 -0.382683 -1.421797
v -3.686257 -3.000000 -1.421797
v -3.593847 -0.344406 -1.594684
v -3.593847 -3.000000 -1.594684
v -3.469484 -0.292893 -1.746221
v -3.469484 -3.000000 -1.746221
v -3.317947 -0.230125 -1.870584
v -3.317947 -3.000000 -1.870583
v -3.145060 -0.158513 -1.962994
v -3.145060 -3.000000 -1.962993
v -4.883698 2.121320 -2.039114
v -5.021647 1.983371 -2.019899
v -4.745748 2.259270 -2.019899
v -4.613099 2.391918 -1.962994
v -4.490850 2.514168 -1.870584
v -4.383697 2.621320 -1.746221
v -4.295759 2.709258 -1.594684
v -4.230416 2.774602 -1.421798
v -4.190178 2.814840 -1.234205
v -4.176591 2.828427 -1.039114
v -4.190178 2.814840 -0.844024
v -4.230416 2.774602 -0.656431
v -4.295759 2.709258 -0.483544
v -4.383697 2.621320 -0.332007
v -4.490850 2.514168 -0.207645
v -4.613099 2.391918 -0.115235
v -4.745748 2.259270 -0.058329
v -4.883698 2.121320 -0.039114
v -5.021647 1.983371 -0.058329
v -5.154295 1.850722 -0.115235
v -5.276545 1.728473 -0.207645
v -5.383698 1.621320 -0.332007
v -5.471635 1.533383 -0.483544
v -5.536979 1.468039 -0.656431
v -5.577217 1.427800 -0.844024
v -5.590804 1.414214 -1.039114
v -5.577217 1.427800 -1.234204
v -5.536979 1.468039 -1.421798
v -5.471635 1.533383 -1.594684
v -5.383698 1.621320 -1.746221
v -5.276545 1.728473 -1.870584
v -5.154295 1.850722 -1.962994
v -2.942797 -0.074733 -1.921169
v -2.937960 -3.000000 -1.921822
v -2.762377 -3.000000 -1.939114
v -2.764467 -0.000864 -1.939142
v -2.586794 -3.000000 -1.921822
v -2.586022 0.073048 -1.921978
v -2.417961 -3.000000 -1.870608
v -2.414579 0.144062 -1.870400
v -2.262363 -3.000000 -1.787439
v -2.256921 0.209366 -1.786578
v -2.125979 -3.000000 -1.675512
v -2.119176 0.266424 -1.674008
v -2.014052 -3.000000 -1.539128
v -2.006560 0.313070 -1.537291
v -1.930883 -3.000000 -1.383530
v -1.923196 0.347602 -1.381858
v -1.879669 -3.000000 -1.214697
v -1.872015 0.368802 -1.213699
v -1.862377 -3.000000 -1.039114
v -1.854763 0.375946 -1.039114
v -1.879669 -3.000000 -0.863531
v -1.872015 0.368802 -0.864529
v -1.930883 -3.000000 -0.694697
v -1.923196 0.347602 -0.696370
v -2.014052 -3.000000 -0.539099
v -2.006560 0.313070 -0.540937
v -2.125979 -3.000000 -0.402715
v -2.119176 0.266425 -0.404220
v -2.262363 -3.000000 -0.290789
v -2.256921 0.209366 -0.291650
v -2.417961 -3.000000 -0.207620
v -2.414579 0.144062 -0.207828
v -2.586794 -3.000000 -0.156406
v -2.586022 0.073048 -0.156250
v -2.762377 -3.000000 -0.139114
v -2.764467 -0.000864 -0.139087
v -2.937960 -3.000000 -0.156406
v -2.942797 -0.074733 -0.157059
v -3.106793 -3.000000 -0.207620
v -3.113889 -0.145603 -0.209369
v -3.262391 -3.000000 -0.290789
v -3.270979 -0.210672 -0.293755
v -3.398775 -3.000000 -0.402715
v -3.407980 -0.267419 -0.406625
v -3.510702 -3.000000 -0.539099
v -3.519763 -0.313720 -0.543290
v -3.593871 -3.000000 -0.694697
v -3.602343 -0.347926 -0.698259
v -3.645085 -3.000000 -0.863531
v -3.652950 -0.368888 -0.865585
v -3.662377 -3.000000 -1.039114
v -3.669991 -0.375946 -1.039114
v -3.645085 -3.000000 -1.214697
v -3.652950 -0.368888 -1.212643
v -3.593871 -3.000000 -1.383530
v -3.602343 -0.347926 -1.379969
v -3.510702 -3.000000 -1.539128
v -3.519763 -0.313720 -1.534938
v -3.398775 -3.000000 -1.675512
v -3.407980 -0.267419 -1.671603
v -3.262391 -3.000000 -1.787439
v -3.270979 -0.210672 -1.784473
v -3.106793 -3.000000 -1.870608
v -3.113889 -0.145603 -1.868859
v -5.007853 1.997165 -1.921822
v -4.883698 2.121320 -1.939114
v -4.759542 2.245476 -1.921822
v -4.640157 2.364861 -1.870608
v -4.530133 2.474884 -1.787439
v -4.433696 2.571322 -1.675513
v -4.354551 2.650467 -1.539129
v -4.295744 2.709274 -1.383530
v -4.259528 2.745490 -1.214697
v -4.247299 2.757719 -1.039114
v -4.259528 2.745490 -0.863531
v -4.295744 2.709274 -0.694698
v -4.354551 2.650467 -0.539100
v -4.433696 2.571322 -0.402716
v -4.530133 2.474884 -0.290789
v -4.640157 2.364861 -0.207620
v -4.759542 2.245476 -0.156406
v -4.883698 2.121320 -0.139114
v -5.007853 1.997165 -0.156406
v -5.127238 1.877780 -0.207620
v -5.237261 1.767756 -0.290789
v -5.333699 1.671319 -0.402716
v -5.412844 1.592173 -0.539100
v -5.471651 1.533367 -0.694698
v -5.507867 1.497151 -0.863531
v -5.520096 1.484922 -1.039114
v -5.507867 1.497151 -1.214697
v -5.471651 1.533367 -1.383530
v -5.412844 1.592173 -1.539129
v -5.333699 1.671319 -1.675513
v -5.237261 1.767756 -1.787439
v -5.127238 1.877780 -1.870608
vn 0.0209 0.0086 -0.9997
vn 0.0000 -0.6857 -0.7279
vn -0.1420 -0.6857 -0.7139
vn -0.1467 -0.0608 -0.9873
vn 0.1874 0.0776 -0.9792
vn 0.1420 -0.6857 -0.7139
vn 0.3489 0.1445 -0.9259
vn 0.2785 -0.6857 -0.6725
vn 0.5011 0.2076 -0.8401
vn 0.4044 -0.6857 -0.6052
vn 0.6391 0.2647 -0.7221
vn 0.5147 -0.6857 -0.5147
vn 0.7565 0.3134 -0.5739
vn 0.6052 -0.6857 -0.4044
vn 0.8470 0.3508 -0.3994
vn 0.6725 -0.6857 -0.2785
vn 0.9042 0.3745 -0.2051
vn 0.7139 -0.6857 -0.1420
vn 0.9239 0.3827 0.0000
vn 0.7279 -0.6857 0.0000
vn 0.9042 0.3745 0.2051
vn 0.7139 -0.6857 0.1420
vn 0.8470 0.3508 0.3994
vn 0.6725 -0.6857 0.2785
vn 0.7565 0.3134 0.5739
vn 0.6052 -0.6857 0.4044
vn 0.6391 0.2647 0.7221
vn 0.5147 -0.6857 0.5147
vn 0.5011 0.2076 0.8401
vn 0.4044 -0.6857 0.6052
vn 0.3489 0.1445 0.9259
vn 0.2785 -0.6857 0.6725
vn 0.1874 0.0776 0.9792
vn 0.1420 -0.6857 0.7139
vn 0.0209 0.0086 0.9997
vn 0.0000 -0.6857 0.7279
vn -0.1467 -0.0608 0.9873
vn -0.1420 -0.6857 0.7139
vn -0.3117 -0.1291 0.9413
vn -0.2785 -0.6857 0.6725
vn -0.4697 -0.1945 0.8611
vn -0.4044 -0.6857 0.6052
vn -0.6150 -0.2547 0.7462
vn -0.5147 -0.6857 0.5147
vn -0.7408 -0.3069 0.5975
vn -0.6052 -0.6857 0.4044
vn -0.8391 -0.3476 0.4183
vn -0.6725 -0.6857 0.2785
vn -0.9021 -0.3737 0.2156
vn -0.7139 -0.6857 0.1420
vn -0.9239 -0.3827 0.0000
vn -0.7279 -0.6857 0.0000
vn -0.9021 -0.3737 -0.2156
vn -0.7139 -0.6857 -0.1420
vn -0.8391 -0.3476 -0.4183
vn -0.6725 -0.6857 -0.2785
vn -0.7408 -0.3069 -0.5975
vn -0.6052 -0.6857 -0.4044
vn -0.6150 -0.2547 -0.7462
vn -0.5147 -0.6857 -0.5147
vn -0.4697 -0.1945 -0.8611
vn -0.4044 -0.6857 -0.6052
vn -0.3117 -0.1291 -0.9413
vn -0.2785 -0.6857 -0.6725
vn -0.4848 0.4848 -0.7279
vn -0.5853 0.3844 -0.7139
vn -0.3844 0.5853 -0.7139
vn -0.2879 0.6818 -0.6725
vn -0.1989 0.7708 -0.6052
vn -0.1209 0.8488 -0.5147
vn -0.0569 0.9128 -0.4044
vn -0.0093 0.9604 -0.2785
vn 0.0199 0.9897 -0.1420
vn 0.0298 0.9995 0.0000
vn 0.0199 0.9897 0.1420
vn -0.0093 0.9604 0.2785
vn -0.0569 0.9128 0.4044
vn -0.1209 0.8488 0.5147
vn -0.1989 0.7708 0.6052
vn -0.2879 0.6818 0.6725
vn -0.3844 0.5853 0.7139
vn -0.4848 0.4848 0.7279
vn -0.5853 0.3844 0.7139
vn -0.6818 0.2879 0.6725
vn -0.7708 0.1989 0.6052
vn -0.8488 0.1209 0.5147
vn -0.9128 0.0569 0.4044
vn -0.9604 0.0093 0.2785
vn -0.9897 -0.0199 0.1420
vn -0.9995 -0.0298 0.0000
vn -0.9897 -0.0199 -0.1420
vn -0.9604 0.0093 -0.2785
vn -0.9128 0.0569 -0.4044
vn -0.8488 0.1209 -0.5147
vn -0.7708 0.1989 -0.6052
vn -0.6818 0.2879 -0.6725
vn 0.1478 0.0612 0.9871
vn 0.1340 -0.7298 0.6704
vn 0.0007 -0.7298 0.6836
vn -0.0199 -0.0082 0.9998
vn -0.1326 -0.7298 0.6706
vn -0.1864 -0.0772 0.9794
vn -0.2609 -0.7297 0.6320
vn -0.3480 -0.1441 0.9263
vn -0.3793 -0.7296 0.5690
vn -0.5004 -0.2073 0.8406
vn -0.4832 -0.7295 0.4841
vn -0.6384 -0.2644 0.7228
vn -0.5686 -0.7293 0.3805
vn -0.7561 -0.3132 0.5746
vn -0.6321 -0.7292 0.2622
vn -0.8467 -0.3507 0.4000
vn -0.6712 -0.7291 0.1337
vn -0.9042 -0.3745 0.2054
vn -0.6844 -0.7291 0.0000
vn -0.6712 -0.7291 -0.1337
vn -0.9042 -0.3745 -0.2054
vn -0.6321 -0.7292 -0.2622
vn -0.8467 -0.3507 -0.4000
vn -0.5686 -0.7293 -0.3805
vn -0.7561 -0.3132 -0.5746
vn -0.4832 -0.7295 -0.4841
vn -0.6384 -0.2644 -0.7228
vn -0.3793 -0.7296 -0.5690
vn -0.5004 -0.2073 -0.8406
vn -0.2609 -0.7297 -0.6320
vn -0.3480 -0.1441 -0.9263
vn -0.1326 -0.7298 -0.6706
vn -0.1864 -0.0772 -0.9794
vn 0.0007 -0.7298 -0.6836
vn -0.0199 -0.0082 -0.9998
vn 0.1340 -0.7298 -0.6704
vn 0.1478 0.0612 -0.9871
vn 0.2622 -0.7297 -0.6315
vn 0.3128 0.1296 -0.9409
vn 0.3803 -0.7295 -0.5684
vn 0.4707 0.1950 -0.8604
vn 0.4840 -0.7294 -0.4835
vn 0.6160 0.2551 -0.7453
vn 0.5691 -0.7292 -0.3800
vn 0.7415 0.3071 -0.5965
vn 0.6324 -0.7290 -0.2618
vn 0.8395 0.3477 -0.4174
vn 0.6715 -0.7289 -0.1335
vn 0.9022 0.3737 -0.2151
vn 0.6847 -0.7288 0.0000
vn 0.6715 -0.7289 0.1335
vn 0.9022 0.3737 0.2151
vn 0.6324 -0.7290 0.2618
vn 0.8395 0.3477 0.4174
vn 0.5691 -0.7292 0.3800
vn 0.7415 0.3071 0.5965
vn 0.4840 -0.7294 0.4835
vn 0.6160 0.2551 0.7453
vn 0.3803 -0.7295 0.5684
vn 0.4707 0.1950 0.8604
vn 0.2622 -0.7297 0.6315
vn 0.3128 0.1296 0.9409
vn -0.4212 0.6108 0.6704
vn -0.5155 0.5166 0.6836
vn -0.6098 0.4223 0.6706
vn -0.7005 0.3315 0.6320
vn -0.7841 0.2477 0.5690
vn -0.8575 0.1741 0.4841
vn -0.9178 0.1137 0.3805
vn -0.9626 0.0687 0.2622
vn -0.9902 0.0409 0.1337
vn -0.9995 0.0316 0.0000
vn -0.9902 0.0409 -0.1337
vn -0.9626 0.0687 -0.2622
vn -0.9178 0.1137 -0.3805
vn -0.8575 0.1741 -0.4841
vn -0.7841 0.2477 -0.5690
vn -0.7005 0.3315 -0.6320
vn -0.6098 0.4223 -0.6706
vn -0.5155 0.5166 -0.6836
vn -0.4212 0.6108 -0.6704
vn -0.3306 0.7014 -0.6315
vn -0.2469 0.7848 -0.5684
vn -0.1735 0.8580 -0.4835
vn -0.1132 0.9180 -0.3800
vn -0.0683 0.9627 -0.2618
vn -0.0406 0.9902 -0.1335
vn -0.0312 0.9995 0.0000
vn -0.0406 0.9902 0.1335
vn -0.0683 0.9627 0.2618
vn -0.1132 0.9180 0.3800
vn -0.1735 0.8580 0.4835
vn -0.2469 0.7848 0.5684
vn -0.3306 0.7014 0.6315
usemtl Material.001
s 1
f 1//1 2//2 3//3 4//4
f 2//2 1//1 5//5 6//6
f 6//6 5//5 7//7 8//8
f 8//8 7//7 9//9 10//10
f 10//10 9//9 11//11 12//12
f 12//12 11//11 13//13 14//14
f 14//14 13//13 15//15 16//16
f 16//16 15//15 17//17 18//18
f 18//18 17//17 19//19 20//20
f 20//20 19//19 21//21 22//22
f 22//22 21//21 23//23 24//24
f 24//24 23//23 25//25 26//26
f 26//26 25//25 27//27 28//28
f 28//28 27//27 29//29 30//30
f 30//30 29//29 31//31 32//32
f 32//32 31//31 33//33 34//34
f 34//34 33//33 35//35 36//36
f 36//36 35//35 37//37 38//38
f 38//38 37//37 39//39 40//40
f 40//40 39//39 41//41 42//42
f 42//42 41//41 43//43 44//44
f 44//44 43//43 45//45 46//46
f 46//46 45//45 47//47 48//48
f 48//48 47//47 49//49 50//50
f 50//50 49//49 51//51 52//52
f 52//52 51//51 53//53 54//54
f 54//54 53//53 55//55 56//56
f 56//56 55//55 57//57 58//58
f 58//58 57//57 59//59 60//60
f 60//60 59//59 61//61 62//62
f 62//62 61//61 63//63 64//64
f 64//64 63//63 4//4 3//3
f 65//65 1//1 4//4 66//66
f 1//1 65//65 67//67 5//5
f 5//5 67//67 68//68 7//7
f 7//7 68//68 69//69 9//9
f 9//9 69//69 70//70 11//11
f 11//11 70//70 71//71 13//13
f 13//13 71//71 72//72 15//15
f 15//15 72//72 73//73 17//17
f 17//17 73//73 74//74 19//19
f 19//19 74//74 75//75 21//21
f 21//21 75//75 76//76 23//23
f 23//23 76//76 77//77 25//25
f 25//25 77//77 78//78 27//27
f 27//27 78//78 79//79 29//29
f 29//29 79//79 80//80 31//31
f 31//31 80//80 81//81 33//33
f 33//33 81//81 82//82 35//35
f 35//35 82//82 83//83 37//37
f 37//37 83//83 84//84 39//39
f 39//39 84//84 85//85 41//41
f 41//41 85//85 86//86 43//43
f 43//43 86//86 87//87 45//45
f 45//45 87//87 88//88 47//47
f 47//47 88//88 89//89 49//49
f 49//49 89//89 90//90 51//51
f 51//51 90//90 91//91 53//53
f 53//53 91//91 92//92 55//55
f 55//55 92//92 93//93 57//57
f 57//57 93//93 94//94 59//59
f 59//59 94//94 95//95 61//61
f 61//61 95//95 96//96 63//63
f 63//63 96//96 66//66 4//4
f 97//97 98//98 99//99 100//100
f 101//101 102//102 100//100 99//99
f 103//103 104//104 102//102 101//101
f 105//105 106//106 104//104 103//103
f 107//107 108//108 106//106 105//105
f 109//109 110//110 108//108 107//107
f 111//111 112//112 110//110 109//109
f 113//113 114//114 112//112 111//111
f 115//115 116//51 114//114 113//113
f 117//116 118//117 116//51 115//115
f 119//118 120//119 118//117 117//116
f 121//120 122//121 120//119 119//118
f 123//122 124//123 122//121 121//120
f 125//124 126//125 124//123 123//122
f 127//126 128//127 126//125 125//124
f 129//128 130//129 128//127 127//126
f 131//130 132//131 130//129 129//128
f 133//132 134//133 132//131 131//130
f 135//134 136//135 134//133 133//132
f 137//136 138//137 136//135 135//134
f 139//138 140//139 138//137 137//136
f 141//140 142//141 140//139 139//138
f 143//142 144//143 142//141 141//140
f 145//144 146//145 144//143 143//142
f 147//146 148//19 146//145 145//144
f 149//147 150//148 148//19 147//146
f 151//149 152//150 150//148 149//147
f 153//151 154//152 152//150 151//149
f 155//153 156//154 154//152 153//151
f 157//155 158//156 156//154 155//153
f 159//157 160//158 158//156 157//155
f 98//98 97//97 160//158 159//157
f 161//159 97//97 100//100 162//160
f 102//102 163//161 162//160 100//100
f 104//104 164//162 163//161 102//102
f 106//106 165//163 164//162 104//104
f 108//108 166//164 165//163 106//106
f 110//110 167//165 166//164 108//108
f 112//112 168//166 167//165 110//110
f 114//114 169//167 168//166 112//112
f 116//51 170//168 169//167 114//114
f 118//117 171//169 170//168 116//51
f 120//119 172//170 171//169 118//117
f 122//121 173//171 172//170 120//119
f 124//123 174//172 173//171 122//121
f 126//125 175//173 174//172 124//123
f 128//127 176//174 175//173 126//125
f 130//129 177//175 176//174 128//127
f 132//131 178//176 177//175 130//129
f 134//133 179//177 178//176 132//131
f 136//135 180//178 179//177 134//133
f 138//137 181//179 180//178 136//135
f 140//139 182//180 181//179 138//137
f 142//141 183//181 182//180 140//139
f 144//143 184//182 183//181 142//141
f 146//145 185//183 184//182 144//143
f 148//19 186//184 185//183 146//145
f 150//148 187//185 186//184 148//19
f 152//150 188//186 187//185 150//148
f 154//152 189//187 188//186 152//150
f 156//154 190//188 189//187 154//152
f 158//156 191//189 190//188 156//154
f 160//158 192//190 191//189 158//156
f 97//97 161//159 192//190 160//158
f 48//48 50//50 145//144 143//142
f 42//42 44//44 139//138 137//136
f 28//28 30//30 125//124 123//122
f 32//32 34//34 129//128 127//126
f 30//30 32//32 127//126 125//124
f 46//46 48//48 143//142 141//140
f 12//12 14//14 109//109 107//107
f 10//10 12//12 107//107 105//105
f 24//24 26//26 121//120 119//118
f 95//95 94//94 190//188 191//189
f 96//96 95//95 191//189 192//190
f 88//88 87//87 183//181 184//182
f 74//74 73//73 169//167 170//168
f 90//90 89//89 185//183 186//184
f 34//34 36//36 131//130 129//128
f 26//26 28//28 123//122 121//120
f 66//66 96//96 192//190 161//159
f 8//8 10//10 105//105 103//103
f 18//18 20//20 115//115 113//113
f 92//92 91//91 187//185 188//186
f 75//75 74//74 170//168 171//169
f 3//3 2//2 99//99 98//98
f 91//91 90//90 186//184 187//185
f 81//81 80//80 176//174 177//175
f 72//72 71//71 167//165 168//166
f 6//6 8//8 103//103 101//101
f 50//50 52//52 147//146 145//144
f 73//73 72//72 168//166 169//167
f 2//2 6//6 101//101 99//99
f 54//54 56//56 151//149 149//147
f 58//58 60//60 155//153 153//151
f 22//22 24//24 119//118 117//116
f 93//93 92//92 188//186 189//187
f 79//79 78//78 174//172 175//173
f 65//65 66//66 161//159 162//160
f 52//52 54//54 149//147 147//146
f 40//40 42//42 137//136 135//134
f 94//94 93//93 189//187 190//188
f 85//85 84//84 180//178 181//179
f 80//80 79//79 175//173 176//174
f 56//56 58//58 153//151 151//149
f 20//20 22//22 117//116 115//115
f 60//60 62//62 157//155 155//153
f 71//71 70//70 166//164 167//165
f 62//62 64//64 159//157 157//155
f 38//38 40//40 135//134 133//132
f 16//16 18//18 113//113 111//111
f 70//70 69//69 165//163 166//164
f 14//14 16//16 111//111 109//109
f 44//44 46//46 141//140 139//138
f 84//84 83//83 179//177 180//178
f 82//82 81//81 177//175 178//176
f 68//68 67//67 163//161 164//162
f 77//77 76//76 172//170 173//171
f 36//36 38//38 133//132 131//130
f 83//83 82//82 178//176 179//177
f 69//69 68//68 164//162 165//163
f 89//89 88//88 184//182 185//183
f 87//87 86//86 182//180 183//181
f 76//76 75//75 171//169 172//170
f 67//67 65//65 162//160 163//161
f 86//86 85//85 181//179 182//180
f 78//78 77//77 173//171 174//172
f 64//64 3//3 98//98 159//157
